# xmcd
#
# Track frame offsets:
#	150
#	13982
#	26545
#	47390
#	61792
#	78030
#	94122
#	108807
#	122772
#	136165
#
# Disc length: 2063 seconds
# Revision: 0
# Processed by: cddbd v1.5.2PL0 Copyright (c) Steve Scherf et al.
# Submitted via: dBpowerAMP V12.0
#
DISCID=6d080d0a
DTITLE=The Highwaymen - Highwayman Super Hits
DYEAR=1999
DGENRE=Country
TTITLE0=Highwayman
TTITLE1=Big River
TTITLE2=Desperados Waiting For A Train
TTITLE3=The Last Cowboy Song
TTITLE4=The Twentieth Century Is Almost Over
TTITLE5=Angels Love Bad Men
TTITLE6=Silver Stallion
TTITLE7=We're All in Your Corner
TTITLE8=Songs That Make a Difference
TTITLE9=American Remains
EXTD=
EXTT0=
EXTT1=
EXTT2=
EXTT3=
EXTT4=
EXTT5=
EXTT6=
EXTT7=
EXTT8=
EXTT9=
PLAYORDER=
